<svg width="611" height="577" viewBox="0 0 611 577" fill="none" xmlns="http://www.w3.org/2000/svg">
<g clip-path="url(#clip0_334_1460)">
<rect x="0.993896" y="9.30212" width="606" height="567" rx="165" fill="white"/>
<path fill-rule="evenodd" clip-rule="evenodd" d="M306.529 576.436C289.103 576.436 271.678 576.422 254.253 576.409H254.251C204.467 576.372 154.686 576.334 104.921 576.603C92.6197 576.659 81.2125 573.947 70.113 569.529C45.286 559.657 26.8059 542.544 13.4697 519.418C8.94232 511.557 6.64393 503.147 4.32312 494.656C3.82058 492.818 3.31698 490.975 2.78947 489.133C0.145257 479.94 0.177559 470.678 0.210027 461.369L0.210027 461.369C0.213606 460.343 0.217185 459.317 0.217185 458.29C0.217185 422.413 0.214079 386.534 0.210973 350.654C0.20476 278.89 0.198546 207.122 0.217185 135.366C0.217185 115.484 5.80884 97.0843 15.9298 80.0825C27.812 60.0885 44.4755 45.184 65.5002 35.3967C87.2797 25.246 109.199 15.3189 131.314 5.89516C140.596 1.9523 150.605 0.274483 160.922 0.302446C219.415 0.369557 277.908 0.376263 336.401 0.382969C375.399 0.387439 414.396 0.39191 453.394 0.414282C463.906 0.414282 473.887 3.46233 483.365 7.60094C504.054 16.5772 524.604 25.8332 545.069 35.2569C575.124 49.0989 595.366 71.8612 605.571 103.32C608.227 111.541 609.849 119.959 609.849 128.879C609.625 242.942 609.541 356.978 609.849 471.041C609.905 488.742 605.459 504.877 597.016 519.977C582.673 545.648 561.313 563.125 533.355 572.381C532.467 572.673 531.919 572.884 531.397 573.085L531.395 573.086C530.767 573.328 530.176 573.555 529.077 573.891C528.739 574.068 528.354 574.174 527.781 574.333L527.781 574.334C527.264 574.477 526.594 574.663 525.666 574.982C524.428 575.199 523.534 575.369 522.73 575.522L522.728 575.522C521.773 575.704 520.946 575.862 519.823 576.044C517.922 576.352 515.965 576.436 514.063 576.436C444.867 576.464 375.698 576.464 306.501 576.464L306.529 576.436ZM304.935 28.3499C291.122 28.3499 277.309 28.3453 263.496 28.3408C228.969 28.3293 194.442 28.3179 159.915 28.3778C145.88 28.4058 133.579 33.3833 123.01 42.6952C108.5 55.5025 103.887 72.3366 103.859 90.7366C103.747 180.779 103.747 270.85 103.999 360.893C103.999 368.694 105.257 376.776 107.633 384.214C115.238 408.067 136.85 422.496 162.711 422.58C216.795 422.728 270.87 422.712 324.947 422.696H324.948H325.008C363.16 422.685 401.313 422.674 439.471 422.72C447.914 422.72 456.33 422.692 464.27 419.896C470.56 417.687 477.047 415.254 482.415 411.451C499.134 399.622 505.9 382.341 506.039 362.486C506.202 339.58 506.108 316.661 506.013 293.746C505.961 281.247 505.909 268.748 505.9 256.253C505.872 204.185 505.844 152.117 505.956 100.048L505.956 99.2583C505.957 90.4413 505.959 81.7501 504.194 72.9797C499.078 47.5888 476.208 28.3778 450.291 28.3778H304.907L304.935 28.3499ZM84.5116 545.089C92.3655 548.65 100.837 548.573 109.331 548.495C110.573 548.483 111.816 548.472 113.057 548.472H502.349C502.793 548.472 503.238 548.46 503.684 548.448H503.685C504.758 548.419 505.832 548.39 506.878 548.528C513.441 549.349 519.51 547.489 525.883 545.536L525.905 545.529C526.475 545.354 527.048 545.179 527.623 545.005C527.544 544.773 527.47 544.542 527.397 544.314C527.362 544.202 527.327 544.091 527.292 543.98C527.046 543.198 526.809 542.445 526.477 541.761C524.06 536.773 521.626 531.789 519.191 526.804L519.183 526.788L519.173 526.766C515.39 519.021 511.606 511.274 507.885 503.507C498.854 484.631 489.88 465.728 481.017 446.797C479.982 444.587 478.892 444 476.739 445.007C467.233 449.397 457.001 450.516 446.824 450.544C352.268 450.711 257.712 450.656 163.128 450.6H163.107H163.047C159.105 450.6 155.106 450.264 151.248 449.481C146.484 448.504 141.776 447.286 137.075 446.069L137.074 446.068L137.07 446.067C135.179 445.578 133.29 445.089 131.398 444.615C129.329 444.112 127.735 444 126.645 446.545C118.984 464.749 111.24 482.925 103.439 501.102C99.1241 511.192 94.7691 521.269 90.4199 531.333L90.3884 531.406C88.4082 535.988 86.4292 540.568 84.4557 545.144L84.5116 545.089ZM529.748 58.5226C529.89 59.4139 529.981 60.0261 530.051 60.4967C530.12 60.9562 530.168 61.2808 530.224 61.5986C532.264 72.3366 534.277 82.9907 534.249 94.0643C534.124 160.346 534.139 226.612 534.155 292.886V292.888C534.16 315.024 534.166 337.16 534.166 359.299C534.166 371.966 532.208 384.354 527.623 396.155C526.113 400.069 526.337 402.502 528.882 405.998C539.862 420.983 550.655 436.113 561.446 451.242C565.657 457.146 569.868 463.049 574.09 468.944C575.32 470.666 576.584 472.371 577.849 474.078L577.851 474.081L577.856 474.088C578.889 475.482 579.923 476.877 580.94 478.284L581.695 477.948V472.467V135.255C581.695 133.96 581.736 132.654 581.778 131.346V131.345C581.884 127.965 581.992 124.574 581.387 121.329C577.193 98.7062 565.115 81.0053 546.467 67.8344C543.174 65.5085 539.559 63.653 535.722 61.6831C533.792 60.6927 531.806 59.6732 529.776 58.5505L529.748 58.5226ZM28.1199 479.094L29.21 479.682C29.7601 479.021 30.3257 478.371 30.8911 477.721L30.8917 477.721L30.892 477.72C32.194 476.224 33.4952 474.728 34.6061 473.11C41.7281 462.626 48.8334 452.13 55.9394 441.633C64.6778 428.725 73.4175 415.815 82.1912 402.922C83.4493 401.076 83.561 399.566 82.7502 397.469C78.2769 386.116 75.7886 374.203 75.7607 362.095C75.5977 285.756 75.6288 209.418 75.6599 133.079V133.07C75.6661 117.747 75.6724 102.424 75.677 87.1013C75.677 85.004 75.7887 82.9068 76.1521 80.8654C77.1819 74.99 78.2901 69.1538 79.4438 63.0779C79.6683 61.8954 79.8946 60.7039 80.1223 59.5013C79.6704 59.7273 79.2428 59.9452 78.8312 60.155L78.83 60.1555C77.9177 60.6204 77.0835 61.0455 76.2361 61.4308C75.7223 61.6615 75.1968 61.8686 74.6713 62.0757C73.7954 62.4209 72.9196 62.766 72.0983 63.2205C43.8324 78.936 28.5392 103.376 28.3714 135.31C27.9467 218.183 28.0195 301.07 28.0922 383.962C28.1201 415.663 28.1479 447.365 28.1479 479.067L28.1199 479.094ZM511.24 423.335C510.339 424.091 509.462 424.815 508.605 425.522C506.322 427.406 504.186 429.17 502.153 431.081C501.594 431.612 501.454 433.206 501.818 434.017C502.793 436.262 503.888 438.445 504.986 440.632L504.987 440.635C505.557 441.771 506.128 442.909 506.682 444.056C520.606 472.942 534.529 501.857 548.424 530.743C549.431 532.868 550.577 533.344 552.283 531.414C553.82 529.691 555.354 527.963 556.888 526.235C561.127 521.46 565.369 516.682 569.701 511.98C571.714 509.798 571.826 507.897 570.092 505.548C565.731 499.648 561.425 493.719 557.175 487.763C543.853 469.128 530.573 450.493 517.188 431.71L517.136 431.637L511.24 423.363V423.335ZM62.9976 532.646C62.8018 532.949 62.5828 533.287 62.3418 533.687C54.3861 527.791 47.9638 520.947 42.3226 513.378C40.1978 510.554 40.4772 507.673 42.5461 504.681C53.0895 489.353 63.578 474.011 74.0693 458.666L74.0816 458.648C78.5535 452.107 83.026 445.565 87.5034 439.023C89.764 435.726 92.0139 432.429 94.3716 428.975L94.3785 428.965L94.3911 428.946C95.847 426.813 97.3441 424.619 98.9102 422.328C99.6011 423.056 100.279 423.758 100.942 424.446C102.829 426.404 104.601 428.241 106.235 430.186C106.683 430.745 106.431 432.172 106.068 433.011C101.971 442.505 97.8541 451.986 93.7368 461.466C89.6203 470.945 85.5038 480.424 81.4083 489.916C77.4591 499.083 73.5596 508.275 69.6601 517.467L69.6586 517.47C67.7061 522.073 65.7535 526.675 63.7947 531.275C63.6029 531.711 63.3349 532.125 62.9976 532.646ZM198.833 249.626L258.608 218.027V216.405L198.833 184.806V157.011L285.392 203.318V231.114L198.833 277.422V249.626ZM314.581 292.914V317.27H411.205V292.914H314.581Z" fill="black"/>
</g>
<defs>
<clipPath id="clip0_334_1460">
<rect width="610" height="576" fill="white" transform="translate(0.0495605 0.151062)"/>
</clipPath>
</defs>
</svg>
